<?xml version="1.0" standalone="no"?>
<!DOCTYPE svg PUBLIC "-//W3C//DTD SVG 20010904//EN"
 "http://www.w3.org/TR/2001/REC-SVG-20010904/DTD/svg10.dtd">
<svg version="1.0" xmlns="http://www.w3.org/2000/svg"
 width="1200.000000pt" height="1200.000000pt" viewBox="0 0 1200.000000 1200.000000"
 preserveAspectRatio="xMidYMid meet">
<metadata>
Created by potrace 1.11, written by Peter Selinger 2001-2013
</metadata>
<g transform="translate(0.000000,1200.000000) scale(0.100000,-0.100000)"
fill="#000000" stroke="none">
<path d="M5686 9053 c-17 -17 -1 -43 43 -71 27 -18 65 -56 86 -87 42 -60 57
-67 30 -13 -42 81 -141 189 -159 171z"/>
<path d="M4915 8834 c-99 -17 -193 -50 -585 -210 -239 -97 -592 -241 -785
-319 -192 -79 -413 -168 -490 -200 -77 -31 -321 -131 -542 -221 -1066 -434
-1217 -496 -1335 -544 l-127 -52 -3 -992 c-2 -652 0 -994 7 -998 6 -4 20 -8
33 -8 25 0 26 -2 11 -53 -9 -33 -8 -41 8 -53 10 -7 35 -14 55 -14 l36 0 -19
-55 c-57 -162 -49 -421 18 -554 34 -67 57 -81 144 -81 57 0 69 -3 89 -25 35
-37 77 -44 275 -45 161 0 275 -8 373 -26 19 -4 38 -1 47 6 10 8 30 10 58 6 66
-10 309 -43 452 -61 71 -9 181 -28 245 -41 63 -14 210 -45 325 -69 220 -46
324 -69 490 -109 55 -13 157 -34 228 -47 l127 -23 0 -93 0 -93 85 0 85 0 21
-42 c76 -149 113 -160 484 -145 351 14 388 21 437 88 20 26 27 29 58 25 385
-56 626 -90 805 -116 190 -27 389 -61 594 -101 l53 -11 -5 -44 c-5 -51 5 -66
59 -89 19 -8 37 -22 41 -32 24 -70 108 -226 143 -266 59 -67 108 -91 243 -122
100 -23 135 -27 230 -23 96 3 120 7 170 31 76 35 121 71 179 143 l47 59 1053
-1 c579 0 1082 -4 1118 -7 36 -4 128 -12 205 -18 77 -5 154 -12 170 -15 23 -3
25 -2 10 4 -11 5 -108 26 -215 46 -107 21 -202 40 -210 43 -8 2 8 12 36 22
178 60 300 205 356 422 l22 85 255 23 c285 25 330 33 347 56 17 23 29 322 14
360 -9 23 -8 40 1 72 14 50 4 68 -42 78 -39 9 -35 38 6 45 24 4 31 11 33 33 2
16 0 36 -4 45 -4 10 -6 22 -4 27 6 19 -1 152 -9 181 -10 36 -13 30 -41 -97
l-21 -97 -42 -6 c-135 -18 -153 -18 -166 -2 -22 26 -9 116 27 189 37 75 59 87
154 87 51 0 60 -3 68 -22 5 -15 9 -17 9 -7 1 9 -2 19 -6 23 -4 3 -8 14 -9 23
-5 33 -27 62 -70 93 -48 34 -168 92 -233 111 -39 12 -41 14 -41 53 -1 23 -3
64 -5 91 -2 28 -9 147 -16 265 -13 248 -19 270 -96 342 -76 70 -181 117 -389
173 -72 19 -125 42 -193 83 -170 100 -388 176 -583 203 -51 7 -94 13 -96 15
-2 1 10 15 26 30 l29 29 7 288 c8 336 8 335 -69 355 -28 7 -64 10 -81 7 -31
-5 -32 -5 -39 42 -9 61 -36 122 -66 150 -24 22 -98 53 -126 53 -8 0 -29 11
-46 24 -47 34 -58 39 -55 25 5 -22 -49 -27 -143 -12 -52 8 -133 20 -182 27
-48 7 -89 15 -92 18 -3 2 3 23 12 46 l16 42 62 0 c55 0 64 -3 90 -30 36 -38
55 -38 55 -2 0 18 -33 80 -91 172 -50 80 -105 170 -122 200 -85 153 -157 249
-221 295 -140 99 -335 163 -555 181 l-84 6 5 142 c6 161 3 180 -33 225 -24 30
-33 34 -115 45 -49 7 -100 19 -114 28 -14 8 -70 20 -125 27 -133 15 -488 56
-705 81 -96 11 -253 22 -348 25 l-172 5 7 -43 c20 -107 -2 -1261 -26 -1377 -7
-34 -8 -35 -59 -38 l-53 -3 3 -82 3 -82 33 -3 32 -3 0 -935 0 -934 -125 0
-125 0 0 929 0 930 54 6 55 7 5 87 c7 106 23 838 27 1216 3 303 -3 349 -46
365 -12 5 -67 12 -121 15 -55 4 -112 9 -129 10 -56 7 -480 14 -510 9z m123
-160 c18 -5 22 -13 22 -43 l0 -36 -50 3 c-53 4 -231 -30 -284 -53 -17 -8 -76
-31 -131 -50 -55 -20 -122 -45 -150 -55 -27 -10 -162 -59 -300 -110 -137 -50
-259 -95 -270 -100 -23 -10 -197 -74 -325 -118 -47 -16 -114 -42 -150 -57 -36
-15 -78 -31 -95 -35 -16 -5 -93 -33 -170 -62 -119 -46 -304 -109 -593 -200
-73 -23 -109 -19 -42 4 25 9 423 165 885 346 1453 570 1371 539 1465 551 47 6
101 13 120 15 19 1 37 3 40 4 3 1 15 -1 28 -4z m2792 -1269 c157 -14 331 -28
388 -32 56 -3 105 -9 107 -13 2 -3 -6 -24 -19 -45 -15 -27 -29 -39 -42 -38
-10 1 -59 4 -109 8 -49 3 -108 8 -130 10 -22 2 -107 9 -190 16 -82 6 -166 12
-185 14 -19 2 -59 4 -87 4 l-53 1 0 50 c0 41 3 50 18 50 9 0 145 -11 302 -25z
m-981 -6 c17 -6 31 -14 31 -18 0 -11 -90 -50 -133 -57 l-39 -7 16 31 c15 29
57 61 82 62 6 0 25 -5 43 -11z m-246 -471 c3 -13 25 -143 48 -290 42 -261 44
-268 66 -268 18 0 23 -6 23 -25 0 -14 -4 -25 -9 -25 -22 0 -59 20 -64 34 -5
13 -85 436 -101 536 -4 26 9 60 23 60 5 0 11 -10 14 -22z m101 -60 c3 -24 7
-79 10 -123 l5 -80 -24 115 c-12 63 -21 118 -18 123 11 18 22 4 27 -35z m594
21 c106 -5 204 -14 217 -19 44 -17 53 -46 60 -199 l7 -144 -119 6 c-65 4 -205
10 -310 13 -106 4 -193 9 -193 13 0 9 -19 227 -25 294 l-6 59 88 -6 c48 -4
175 -11 281 -17z m1412 -260 c3 -145 4 -266 3 -268 -1 -1 -26 5 -55 15 -40 14
-47 19 -30 22 12 2 22 7 22 13 0 5 -10 11 -22 13 -19 4 -277 36 -291 36 -9 0
-14 275 -5 313 11 52 41 85 83 93 44 8 268 32 280 29 6 -1 12 -102 15 -266z
m485 249 c3 -13 2 -148 -2 -301 -8 -261 -9 -280 -28 -293 -25 -18 -49 -14 -53
9 -3 12 3 17 22 17 l26 0 0 295 c0 254 2 295 15 295 8 0 17 -10 20 -22z m-337
-5 c17 -16 24 -53 51 -268 17 -137 31 -253 31 -257 0 -10 -115 -10 -159 -2
l-31 7 0 268 0 269 44 0 c27 0 51 -7 64 -17z m232 -175 c0 -83 -2 -149 -4
-147 -4 3 -36 269 -36 294 0 3 9 5 20 5 19 0 20 -7 20 -152z m-623 -444 c-3
-3 -12 -4 -19 -1 -8 3 -5 6 6 6 11 1 17 -2 13 -5z m50 -10 c-3 -3 -12 -4 -19
-1 -8 3 -5 6 6 6 11 1 17 -2 13 -5z m50 -10 c-3 -3 -12 -4 -19 -1 -8 3 -5 6 6
6 11 1 17 -2 13 -5z m116 -25 c180 -46 409 -139 599 -245 104 -57 328 -202
328 -211 0 -3 -12 3 -27 13 -315 208 -647 363 -973 453 -69 19 -7 11 73 -10z
m958 -476 c13 -16 12 -17 -3 -4 -10 7 -18 15 -18 17 0 8 8 3 21 -13z m-2934
-81 c26 -17 33 -69 33 -266 0 -191 -1 -205 -21 -230 -17 -22 -28 -26 -72 -26
-38 0 -56 5 -74 22 -23 21 -23 24 -23 245 0 210 1 224 20 243 15 15 33 20 73
20 28 0 57 -4 64 -8z m716 -7 c424 -37 840 -122 1222 -250 165 -55 189 -64
183 -71 -3 -3 -75 16 -159 41 -221 66 -564 149 -786 190 -200 36 -540 85 -596
85 -17 0 -39 5 -47 10 -20 13 -20 13 183 -5z m-48 -60 c313 -19 778 -104 1105
-201 135 -40 350 -116 350 -124 0 -4 -64 12 -142 36 -407 125 -994 243 -1385
280 -40 4 -73 11 -73 15 0 5 10 7 23 5 12 -3 67 -8 122 -11z m1824 -426 c6
-162 11 -361 11 -442 0 -80 4 -148 9 -152 6 -3 7 187 4 487 -4 341 -2 490 5
483 12 -12 32 -479 32 -765 0 -155 3 -198 13 -195 9 4 11 49 6 198 -10 326
-10 757 -1 757 12 0 20 -125 27 -400 3 -124 8 -272 10 -330 2 -58 4 -133 5
-167 0 -35 4 -63 9 -63 6 0 8 19 6 43 -10 130 -16 917 -7 917 6 0 13 -36 16
-82 7 -95 26 -663 26 -785 0 -54 4 -83 11 -83 7 0 9 15 6 43 -12 85 -20 897
-9 897 6 0 13 -36 16 -82 7 -90 26 -667 26 -785 0 -47 4 -73 11 -73 7 0 9 9 5
23 -11 45 -20 907 -9 907 15 0 22 -127 33 -559 5 -200 12 -366 14 -369 3 -2 3
203 -1 457 -4 308 -3 461 4 461 14 0 22 -157 30 -567 3 -189 9 -343 12 -343 3
0 4 204 3 452 -3 308 -1 450 6 443 6 -6 14 -116 20 -260 l9 -250 1 248 c1 139
6 247 11 247 11 0 19 -127 31 -475 l9 -270 -4 367 c-4 319 -2 366 10 361 12
-4 15 -27 16 -102 1 -53 5 -181 8 -286 l7 -190 2 278 c1 177 6 277 12 277 6 0
11 -24 11 -52 1 -29 5 -125 9 -213 l6 -160 2 205 c2 158 5 201 14 192 8 -8 14
-76 18 -204 l7 -193 1 190 c2 151 5 187 15 177 8 -9 14 -65 18 -175 l5 -162 2
159 c2 140 4 157 17 146 12 -10 15 -44 17 -169 l2 -156 6 150 c4 127 7 147 18
128 7 -14 13 -69 14 -150 l2 -128 3 115 c4 125 10 158 23 125 8 -17 9 -16 9 8
1 16 7 38 14 50 10 19 13 9 18 -78 l5 -100 2 112 c1 62 6 115 12 118 12 8 11
18 19 -150 l8 -140 1 157 c2 188 20 225 25 51 l3 -118 2 127 c2 134 18 184 25
76 l3 -63 2 68 c1 37 7 67 12 67 12 0 11 7 20 -140 l7 -115 1 138 c3 178 21
186 24 10 l2 -128 3 125 c4 160 16 186 23 50 l6 -105 2 108 c1 60 6 107 12
107 5 0 11 -39 13 -87 l3 -88 2 93 c3 116 21 123 24 10 l2 -83 3 75 c5 110 17
118 23 15 l6 -90 2 88 c1 48 6 87 12 87 5 0 11 -42 13 -92 l3 -93 2 98 c1 54
6 97 12 97 5 0 11 -47 13 -107 l3 -108 2 114 c1 63 5 111 10 107 4 -4 10 -53
13 -109 l6 -102 2 110 c4 123 7 121 20 -10 l8 -90 3 105 4 105 6 -80 6 -80 2
77 c1 42 6 79 10 82 9 6 32 -531 32 -746 0 -86 4 -138 10 -138 13 0 13 -56 0
-81 -10 -17 -18 -19 -68 -13 -85 9 -139 20 -217 47 -65 22 -70 26 -76 58 -6
31 -6 32 -8 6 l-1 -28 -30 21 c-17 12 -30 31 -31 43 0 19 -1 20 -8 4 -7 -19
-14 -13 -81 73 l-20 25 -19 -25 -20 -25 -4 55 -3 55 -2 -60 c-2 -33 -9 -68
-17 -79 -13 -17 -15 -8 -18 80 l-3 99 -2 -101 c-1 -76 -6 -105 -17 -114 -13
-11 -15 1 -17 101 l-2 114 -6 -124 c-3 -85 -9 -126 -17 -128 -9 -3 -13 25 -16
109 l-3 113 -2 -121 c-2 -98 -5 -123 -17 -128 -13 -4 -15 10 -17 92 l-2 97 -5
-104 c-4 -71 -10 -106 -18 -109 -9 -2 -13 9 -14 35 -1 21 -5 49 -9 63 -6 18
-8 4 -9 -47 -1 -58 -4 -73 -16 -73 -8 0 -23 -4 -33 -10 -47 -26 -331 -80 -374
-72 -19 4 -26 57 -9 64 4 2 4 196 -1 438 -5 239 -6 460 -2 490 l7 55 8 -45 c4
-25 12 -178 18 -341z m-1708 346 c286 -29 543 -74 819 -146 177 -46 520 -157
520 -169 0 -5 -28 1 -62 11 -430 134 -905 236 -1343 289 -93 11 -177 22 -185
24 -41 10 115 4 251 -9z m-5218 -365 c-4 -4 -26 -5 -48 -2 l-40 6 40 6 c43 6
62 2 48 -10z m1749 -79 c4 -1 -3 -17 -17 -36 -23 -35 -45 -112 -45 -160 0 -13
-3 -26 -7 -28 -11 -7 -264 45 -283 58 -8 5 -26 11 -40 13 -13 2 -26 5 -28 7
-2 2 5 34 15 72 l18 68 165 5 c143 4 189 5 222 1z m-1642 -53 l0 -28 70 0 c70
0 70 0 70 28 0 21 5 28 21 29 18 2 20 -3 18 -59 -2 -41 -7 -62 -17 -65 -11 -5
-11 -7 0 -14 16 -10 19 -49 5 -67 -7 -9 -5 -11 9 -5 17 6 18 5 4 -13 -14 -18
-14 -18 2 -5 10 7 16 17 13 21 -8 13 11 21 30 14 14 -6 13 -8 -5 -21 -11 -8
-20 -20 -20 -27 0 -8 -12 -21 -26 -31 -14 -9 -23 -19 -19 -23 3 -4 10 0 15 8
7 10 10 -3 10 -42 0 -32 4 -58 8 -58 5 0 19 11 32 25 12 13 27 22 32 19 5 -3
7 -2 6 3 -4 15 22 53 37 53 8 0 14 3 13 8 -2 4 26 36 60 72 46 47 65 61 71 52
7 -11 10 -10 14 3 4 9 3 13 -3 10 -17 -10 -11 4 10 25 22 22 35 26 24 8 -5 -8
-1 -8 12 2 29 22 30 24 12 17 -29 -10 -21 5 26 51 29 27 53 42 71 42 23 0 24
-2 15 -20 -6 -11 -15 -20 -21 -20 -6 0 -7 5 -3 11 4 8 0 8 -15 0 -25 -14 -28
-23 -3 -14 15 6 15 4 -3 -18 -11 -13 -29 -34 -41 -46 -12 -12 -24 -28 -26 -35
-4 -10 -9 -10 -24 2 -18 14 -18 14 -5 -3 13 -17 9 -24 -50 -81 -35 -34 -88
-90 -118 -124 -30 -34 -58 -62 -63 -62 -5 0 -7 4 -4 9 3 5 -2 15 -11 22 -15
12 -16 12 -8 -1 15 -24 17 -52 3 -47 -7 2 -11 11 -10 18 2 8 0 10 -4 6 -12
-12 -14 -38 -2 -31 6 4 8 1 6 -7 -3 -8 -12 -13 -21 -13 -9 1 -14 -2 -11 -8 3
-5 0 -15 -6 -23 -15 -17 -45 -20 -34 -4 5 8 2 9 -12 1 -12 -7 -25 -7 -36 -1
-10 5 -18 6 -18 2 0 -4 -5 -1 -10 7 -6 10 -10 11 -10 3 0 -7 -5 -13 -11 -13
-6 0 -8 7 -5 16 3 8 2 12 -4 9 -6 -3 -10 -1 -10 5 0 6 8 9 18 6 9 -3 37 -8 62
-11 l45 -5 0 75 c0 78 -8 90 -39 59 -9 -8 -21 -12 -27 -8 -8 4 -9 3 -5 -5 4
-6 -5 -24 -23 -41 l-30 -30 2 25 c1 14 9 30 17 35 8 5 12 10 9 10 -3 0 11 18
32 41 21 23 42 38 47 35 5 -3 16 2 23 12 13 16 13 16 -5 2 -18 -14 -19 -13
-12 5 10 28 10 24 2 88 l-8 57 -69 0 -69 0 -1 -67 c-1 -38 -1 -71 0 -75 0 -4
-5 -5 -12 -2 -8 3 -14 -2 -14 -11 0 -9 5 -14 11 -12 14 6 20 -162 6 -178 -7
-8 -5 -12 5 -12 8 0 12 4 9 9 -3 4 -1 8 4 8 6 0 12 -7 16 -15 4 -11 -2 -15
-23 -15 -15 0 -31 3 -34 6 -4 4 -45 6 -92 5 -48 -1 -133 1 -191 5 -101 7 -105
8 -100 28 4 12 9 49 13 83 5 56 8 61 32 65 44 6 60 -2 63 -30 2 -19 10 -28 28
-32 14 -4 42 -14 64 -24 50 -23 89 -13 124 30 15 19 33 34 40 34 14 0 14 -6
14 148 -1 91 2 121 11 115 7 -4 7 0 -1 10 -16 19 -10 34 13 34 10 0 15 -10 15
-29z m-360 -8 c0 -23 -10 -26 -28 -8 -18 18 -15 28 8 28 13 0 20 -7 20 -20z
m258 5 c13 -13 -17 -25 -64 -25 -49 0 -54 2 -54 21 0 20 3 21 57 15 31 -4 59
-8 61 -11z m-791 -42 c20 -49 28 -210 14 -287 -34 -181 -101 -105 -101 114 0
128 20 210 51 210 14 0 25 -12 36 -37z m-213 1 c28 -72 11 -284 -25 -327 -19
-22 -19 -22 -34 -2 -25 32 -38 95 -38 195 -1 121 5 138 46 143 18 2 35 5 38 5
4 1 10 -5 13 -14z m2571 -208 l120 -22 8 -48 c4 -27 7 -50 5 -51 -2 -2 -87
-30 -190 -63 -204 -65 -233 -68 -243 -20 -9 37 13 194 28 207 33 26 122 25
272 -3z m4404 -93 c25 -94 40 -172 43 -223 l3 -55 -47 -3 c-109 -7 -187 45
-226 151 -22 58 -28 122 -14 144 8 13 52 19 159 21 l72 2 10 -37z m403 10 c56
-26 136 -98 178 -161 62 -94 41 -108 -185 -122 -94 -6 -198 -8 -232 -4 -62 6
-63 6 -69 43 -3 20 -17 85 -30 146 -13 60 -24 114 -24 118 0 5 71 7 158 5 134
-3 164 -7 204 -25z m-2672 -83 c295 -32 336 -38 327 -46 -8 -8 -667 70 -667
79 0 5 12 6 28 3 15 -3 155 -19 312 -36z m-2592 -85 c3 -30 0 -37 -12 -32 -8
3 -31 9 -50 13 -20 3 -36 8 -36 11 0 3 12 17 27 33 36 39 67 28 71 -25z m676
43 c18 -8 23 -15 16 -23 -5 -6 -12 -51 -14 -99 -2 -48 -6 -90 -9 -92 -9 -9
-409 46 -459 64 -27 9 -48 18 -48 21 0 4 109 36 243 72 133 37 243 67 244 68
1 0 13 -4 27 -11z m331 -212 c0 -46 3 -87 7 -91 3 -4 16 -2 27 5 17 9 21 8 21
-4 0 -8 8 -19 17 -24 11 -6 17 -24 19 -48 0 -22 5 -47 9 -58 13 -29 -23 -126
-60 -163 -40 -40 -73 -42 -115 -7 -65 55 -100 170 -100 335 l0 106 88 15 c48
9 87 16 87 17 0 0 0 -37 0 -83z m1388 -63 c-3 -49 -7 -89 -8 -91 -1 -1 -10 0
-19 4 -13 5 -16 20 -16 78 0 95 7 118 30 106 16 -8 17 -20 13 -97z m394 19
c14 -9 6 -192 -8 -192 -25 0 -39 115 -23 178 7 24 12 26 31 14z m4123 -162
c18 -10 20 -22 20 -125 0 -99 -2 -116 -17 -123 -16 -9 -50 -13 -238 -27 -33
-3 -89 -7 -125 -10 -36 -3 -162 -12 -280 -20 -118 -8 -237 -17 -263 -20 -75
-7 -87 12 -87 129 0 123 8 133 110 141 41 3 100 8 130 10 30 3 120 9 200 15
80 6 177 13 215 16 39 3 112 9 163 12 51 4 107 8 123 10 16 1 38 -2 49 -8z
m-2930 -212 c21 -93 24 -226 6 -317 -67 -355 -328 -414 -472 -107 -47 102 -83
296 -54 296 6 0 10 -15 10 -32 0 -54 29 -158 57 -210 30 -55 66 -85 113 -95
17 -3 34 -12 37 -19 6 -17 78 -64 98 -64 41 0 -8 63 -58 76 l-29 7 30 27 c50
45 93 153 91 225 -1 26 -2 24 -9 -12 -11 -54 -44 -118 -72 -137 -35 -25 -90
-20 -122 9 -35 32 -65 101 -73 165 l-6 50 142 0 143 0 -4 70 -3 70 70 24 c39
14 75 25 82 25 6 1 17 -23 23 -51z m1723 -328 c77 -14 79 -15 110 -59 17 -25
56 -73 86 -105 l56 -59 -35 7 c-19 3 -141 22 -270 42 -129 20 -257 39 -285 43
-27 5 -155 23 -283 41 -128 18 -231 34 -230 36 4 3 418 52 538 63 119 11 213
8 313 -9z"/>
<path d="M10023 5205 c0 -33 2 -45 4 -27 2 18 2 45 0 60 -2 15 -4 0 -4 -33z"/>
<path d="M9883 5145 c0 -44 2 -61 4 -37 2 23 2 59 0 80 -2 20 -4 1 -4 -43z"/>
<path d="M9564 4750 c0 -91 2 -128 3 -82 2 45 2 119 0 165 -1 45 -3 8 -3 -83z"/>
<path d="M9921 4894 c0 -11 3 -14 6 -6 3 7 2 16 -1 19 -3 4 -6 -2 -5 -13z"/>
<path d="M9992 4820 c0 -14 2 -19 5 -12 2 6 2 18 0 25 -3 6 -5 1 -5 -13z"/>
<path d="M9923 4790 c0 -25 2 -35 4 -22 2 12 2 32 0 45 -2 12 -4 2 -4 -23z"/>
<path d="M10192 4650 c0 -14 2 -19 5 -12 2 6 2 18 0 25 -3 6 -5 1 -5 -13z"/>
<path d="M10222 4650 c0 -14 2 -19 5 -12 2 6 2 18 0 25 -3 6 -5 1 -5 -13z"/>
<path d="M10161 4644 c0 -11 3 -14 6 -6 3 7 2 16 -1 19 -3 4 -6 -2 -5 -13z"/>
<path d="M2919 4978 c-5 -18 -6 -38 -1 -34 7 8 12 36 6 36 -2 0 -4 -1 -5 -2z"/>
<path d="M2500 4730 c-9 -6 -10 -10 -3 -10 6 0 15 5 18 10 8 12 4 12 -15 0z"/>
<path d="M2346 4667 c3 -10 9 -15 12 -12 3 3 0 11 -7 18 -10 9 -11 8 -5 -6z"/>
<path d="M9835 4074 c-236 -18 -442 -33 -457 -33 l-28 -1 0 -100 0 -100 38 0
c53 0 874 60 890 65 16 6 13 197 -3 200 -5 2 -203 -12 -440 -31z"/>
<path d="M7287 3702 c-27 -29 -33 -87 -13 -117 14 -21 24 -26 49 -23 28 3 32
8 40 43 4 22 7 56 5 75 -3 31 -7 35 -34 38 -20 2 -36 -3 -47 -16z"/>
<path d="M8141 8692 c-13 -24 -7 -42 13 -42 21 0 92 -67 126 -120 18 -28 35
-49 37 -46 11 10 -55 114 -108 170 -55 59 -56 59 -68 38z"/>
</g>
</svg>
